<?xml version="1.0" standalone="no"?><!DOCTYPE svg PUBLIC "-//W3C//DTD SVG 1.1//EN" "http://www.w3.org/Graphics/SVG/1.1/DTD/svg11.dtd"><svg t="1712030588523" class="icon" viewBox="0 0 1024 1024" version="1.1" xmlns="http://www.w3.org/2000/svg" p-id="8925" xmlns:xlink="http://www.w3.org/1999/xlink" width="200" height="200"><path d="M969.555717 856.19228H41.019665c-4.474873 0-8.203933-3.72906-8.203933-8.203933s3.72906-8.203933 8.203933-8.203933H969.555717c4.474873 0 8.203933 3.72906 8.203933 8.203933s-3.72906 8.203933-8.203933 8.203933z" fill="#233E49" p-id="8926"></path><path d="M284.154406 814.426803c0 17.89949-14.17043 32.06992-32.069919 32.06992H176.011653c-17.89949 0-32.06992-14.17043-32.06992-32.06992V562.342316c0-17.89949 14.17043-32.06992 32.06992-32.06992h76.072834c17.89949 0 32.06992 14.17043 32.069919 32.06992v252.084487z" fill="#FF4848" p-id="8927"></path><path d="M485.523671 814.426803c0 17.89949-14.17043 32.06992-32.06992 32.06992H377.380918c-17.89949 0-32.06992-14.17043-32.06992-32.06992V670.485069c0-17.89949 14.17043-32.06992 32.06992-32.06992h76.072833c17.89949 0 32.06992 14.17043 32.06992 32.06992v143.941734z" fill="#FBD000" p-id="8928"></path><path d="M686.892935 814.426803c0 17.89949-14.17043 32.06992-32.06992 32.06992H578.750182c-17.89949 0-32.06992-14.17043-32.06992-32.06992V442.26657c0-17.89949 14.17043-32.06992 32.06992-32.06992h76.072833c17.89949 0 32.06992 14.17043 32.06992 32.06992v372.160233z" fill="#75B600" p-id="8929"></path><path d="M887.516387 814.426803c0 17.89949-14.17043 32.06992-32.069919 32.06992h-76.072834c-17.89949 0-32.06992-14.17043-32.06992-32.06992V325.919883c0-17.89949 14.17043-32.06992 32.06992-32.069919h76.072834c17.89949 0 32.06992 14.17043 32.069919 32.069919v488.50692z" fill="#3AD0F9" p-id="8930"></path><path d="M407.959213 507.898034c-1.491624 0-2.983248-0.745812-4.474872-1.491625L205.844137 381.85579c-3.72906-2.237436-5.220685-7.458121-2.237436-11.187181 2.237436-3.72906 7.458121-5.220685 11.187181-2.237436l191.673707 120.821558L604.107793 243.880554l2.237436-2.237437L812.935178 130.517116c3.72906-2.237436 8.949745-0.745812 11.187182 2.983248 2.237436 3.72906 0.745812 8.949745-2.983249 11.187182L615.294975 255.067735l-201.369265 249.84705c-1.491624 2.237436-3.72906 2.983248-5.966497 2.983249z" fill="#233E49" p-id="8931"></path><path d="M410.19665 489.998543m-49.96941 0a49.96941 49.96941 0 1 0 99.93882 0 49.96941 49.96941 0 1 0-99.93882 0Z" fill="#3AD0F9" p-id="8932"></path><path d="M610.07429 248.355426m-49.96941 0a49.96941 49.96941 0 1 0 99.93882 0 49.96941 49.96941 0 1 0-99.93882 0Z" fill="#FF4848" p-id="8933"></path><path d="M210.319009 375.143481m-49.96941 0a49.96941 49.96941 0 1 0 99.938821 0 49.96941 49.96941 0 1 0-99.938821 0Z" fill="#FBD000" p-id="8934"></path><path d="M813.680991 136.483613m-49.969411 0a49.96941 49.96941 0 1 0 99.938821 0 49.96941 49.96941 0 1 0-99.938821 0Z" fill="#75B600" p-id="8935"></path><path d="M211.810634 431.8252c-32.815732 0-59.664967-26.849235-59.664968-59.664967s26.849235-59.664967 59.664968-59.664967 59.664967 26.849235 59.664967 59.664967c0.745812 32.815732-26.103423 59.664967-59.664967 59.664967z m0-103.66788c-23.865987 0-43.257101 19.391114-43.257102 43.257101 0 23.865987 19.391114 43.257101 43.257102 43.257101 23.865987 0 43.257101-19.391114 43.257101-43.257101 0-23.120175-19.391114-43.257101-43.257101-43.257101zM412.434086 551.900947c-32.815732 0-59.664967-26.849235-59.664967-59.664967s26.849235-59.664967 59.664967-59.664968 59.664967 26.849235 59.664967 59.664968-26.849235 59.664967-59.664967 59.664967z m0-103.667881c-23.865987 0-43.257101 19.391114-43.257101 43.257102 0 23.865987 19.391114 43.257101 43.257101 43.257101 23.865987 0 43.257101-19.391114 43.257101-43.257101 0-23.120175-19.391114-43.257101-43.257101-43.257102z" fill="#233E49" p-id="8936"></path><path d="M252.084487 799.510561H176.011653c-17.89949 0-32.06992-17.89949-32.06992-35.798981v49.969411c0 17.89949 14.17043 32.06992 32.06992 32.069919h76.072834c17.89949 0 32.06992-14.17043 32.069919-32.069919v-49.969411c0 17.89949-14.916242 35.79898-32.069919 35.798981z" fill="#EA291C" p-id="8937"></path><path d="M453.453751 799.510561H377.380918c-17.89949 0-32.06992-17.89949-32.06992-35.798981v49.969411c0 17.89949 14.17043 32.06992 32.06992 32.069919h76.072833c17.89949 0 32.06992-14.17043 32.06992-32.069919v-49.969411c0 17.89949-14.916242 35.79898-32.06992 35.798981z" fill="#F4B10B" p-id="8938"></path><path d="M856.19228 795.7815h-76.072834c-17.89949 0-32.06992-14.17043-32.069919-32.06992v49.969411c0 17.89949 14.17043 32.06992 32.069919 32.069919h76.072834c17.89949 0 32.06992-14.17043 32.06992-32.069919v-49.969411c-0.745812 17.89949-14.916242 32.06992-32.06992 32.06992z" fill="#00B3F9" p-id="8939"></path><path d="M607.836854 304.291333c-30.578296 0-55.935907-25.357611-55.935907-55.935907s25.357611-55.935907 55.935907-55.935907 55.935907 25.357611 55.935906 55.935907-25.357611 55.935907-55.935906 55.935907z m0-96.955572c-22.374363 0-40.273853 17.89949-40.273853 40.273853 0 22.374363 17.89949 40.273853 40.273853 40.273853 22.374363 0 40.273853-17.89949 40.273852-40.273853 0-22.374363-17.89949-40.273853-40.273852-40.273853z" fill="#233E49" p-id="8940"></path><path d="M654.823015 799.510561H578.750182c-17.89949 0-32.06992-17.89949-32.06992-35.798981v49.969411c0 17.89949 14.17043 32.06992 32.06992 32.069919h76.072833c17.89949 0 32.06992-14.17043 32.06992-32.069919v-49.969411c0 17.89949-14.916242 35.79898-32.06992 35.798981z" fill="#58990D" p-id="8941"></path><path d="M815.918427 191.673707c-30.578296 0-55.935907-25.357611-55.935907-55.935907s25.357611-55.935907 55.935907-55.935906 55.935907 25.357611 55.935907 55.935906-25.357611 55.935907-55.935907 55.935907z m0-96.209759c-22.374363 0-40.273853 17.89949-40.273853 40.273852s17.89949 40.273853 40.273853 40.273853c22.374363 0 40.273853-17.89949 40.273853-40.273853s-17.89949-40.273853-40.273853-40.273852zM255.813547 856.19228H176.011653c-22.374363 0-40.273853-17.89949-40.273853-40.273853V567.563001c0-22.374363 17.89949-40.273853 40.273853-40.273853h79.801894c22.374363 0 40.273853 17.89949 40.273853 40.273853v247.609614c0 22.374363-17.89949 41.019665-40.273853 41.019665zM176.011653 543.697014c-13.424618 0-23.865987 10.441369-23.865987 23.865987v247.609614c0 13.424618 10.441369 23.865987 23.865987 23.865987h79.801894c13.424618 0 23.865987-10.441369 23.865987-23.865987V567.563001c0-13.424618-10.441369-23.865987-23.865987-23.865987H176.011653zM455.691187 856.19228H375.889294c-22.374363 0-40.273853-17.89949-40.273853-40.273853V671.976693c0-22.374363 17.89949-40.273853 40.273853-40.273853h79.801893c22.374363 0 40.273853 17.89949 40.273853 40.273853v143.941734c0 21.628551-17.89949 40.273853-40.273853 40.273853zM375.889294 648.110706c-13.424618 0-23.865987 10.441369-23.865987 23.865987v143.941734c0 13.424618 10.441369 23.865987 23.865987 23.865987h79.801893c13.424618 0 23.865987-10.441369 23.865987-23.865987V671.976693c0-13.424618-10.441369-23.865987-23.865987-23.865987H375.889294zM655.568827 856.19228H575.766934c-22.374363 0-40.273853-17.89949-40.273853-40.273853V448.233066c0-22.374363 17.89949-40.273853 40.273853-40.273853h79.801893c22.374363 0 40.273853 17.89949 40.273853 40.273853v367.685361c0 21.628551-17.89949 40.273853-40.273853 40.273853z m-79.801893-432.571013c-13.424618 0-23.865987 10.441369-23.865987 23.865987v367.685361c0 13.424618 10.441369 23.865987 23.865987 23.865987h79.801893c13.424618 0 23.865987-10.441369 23.865987-23.865987V448.233066c0-13.424618-10.441369-23.865987-23.865987-23.865987H575.766934zM856.19228 856.19228h-72.343773c-22.374363 0-40.273853-17.89949-40.273853-40.273853V328.15732c0-22.374363 17.89949-40.273853 40.273853-40.273853h72.343773c22.374363 0 40.273853 17.89949 40.273853 40.273853v487.761107c-0.745812 21.628551-18.645302 40.273853-40.273853 40.273853z m-72.343773-551.900947c-13.424618 0-23.865987 10.441369-23.865987 23.865987v487.761107c0 13.424618 10.441369 23.865987 23.865987 23.865987h72.343773c13.424618 0 23.865987-10.441369 23.865987-23.865987V328.15732c0-13.424618-10.441369-23.865987-23.865987-23.865987h-72.343773z" fill="#233E49" p-id="8942"></path><path d="M239.405681 384.093227c-4.474873 0-8.203933-3.72906-8.203933-7.458121 0-9.695557-8.203933-17.153678-19.391114-17.153678-10.441369 0-19.391114 7.458121-19.391115 17.153678 0 4.474873-3.72906 7.458121-8.203933 7.458121s-8.203933-3.72906-8.203933-7.458121c0-17.89949 16.407866-32.06992 35.798981-32.06992 20.136926 0 35.79898 14.17043 35.79898 32.06992 0 3.72906-3.72906 7.458121-8.203933 7.458121zM439.283321 495.96504c-4.474873 0-8.203933-3.72906-8.203933-7.458121 0-9.695557-8.203933-17.153678-19.391114-17.153678-10.441369 0-19.391114 7.458121-19.391114 17.153678 0 4.474873-3.72906 7.458121-8.203933 7.458121-4.474873 0-8.203933-3.72906-8.203933-7.458121 0-17.89949 16.407866-32.06992 35.79898-32.06992 20.136926 0 35.79898 14.17043 35.79898 32.06992 0.745812 3.72906-3.72906 7.458121-8.203933 7.458121zM632.448653 255.813547c-4.474873 0-7.458121-3.72906-7.458121-7.458121 0-9.695557-7.458121-17.153678-17.153678-17.153678-9.695557 0-17.153678 7.458121-17.153678 17.153678 0 4.474873-3.72906 7.458121-7.458121 7.458121s-7.458121-3.72906-7.458121-7.458121c0-17.89949 14.17043-32.06992 32.06992-32.06992s32.06992 14.17043 32.069919 32.06992c0 4.474873-3.72906 7.458121-7.45812 7.458121zM840.530226 144.687546c-4.474873 0-7.458121-3.72906-7.458121-7.458121 0-9.695557-7.458121-17.153678-17.153678-17.153678-9.695557 0-17.153678 7.458121-17.153678 17.153678 0 4.474873-3.72906 7.458121-7.458121 7.458121-4.474873 0-7.458121-3.72906-7.458121-7.458121 0-17.89949 14.17043-32.815732 32.06992-32.815732s32.06992 14.916242 32.06992 32.815732c0 3.72906-3.72906 7.458121-7.458121 7.458121zM255.813547 743.574654c-4.474873 0-8.203933-3.72906-8.203933-8.203933v-32.06992c0-4.474873 3.72906-8.203933 8.203933-8.203933 4.474873 0 8.203933 3.72906 8.203933 8.203933v32.06992c0 5.220685-3.72906 8.203933-8.203933 8.203933zM255.813547 680.180626c-4.474873 0-8.203933-3.72906-8.203933-8.203933V576.512746c0-4.474873-3.72906-8.203933-8.203933-8.203933h-55.190095c-4.474873 0-8.203933 3.72906-8.203933 8.203933 0 4.474873-3.72906 8.203933-8.203933 8.203933-4.474873 0-8.203933-3.72906-8.203933-8.203933 0-13.424618 11.187181-24.611799 24.611799-24.611799h55.190095c13.424618 0 24.611799 11.187181 24.611799 24.611799V671.230881c0 5.220685-3.72906 8.949745-8.203933 8.949745zM455.691187 783.102695c-4.474873 0-8.203933-3.72906-8.203933-8.203933V680.926438c0-4.474873-3.72906-8.203933-8.949745-9.695557h-52.952658c-4.474873 0-8.203933-3.72906-8.203933-8.203933s3.72906-8.203933 8.203933-8.203933h55.935906c12.678806 2.237436 22.374363 12.678806 22.374363 25.357611v93.226512c0 5.966497-3.72906 9.695557-8.203933 9.695557zM655.568827 751.778587c-4.474873 0-8.203933-3.72906-8.203933-8.203933V663.77276c0-4.474873 3.72906-8.203933 8.203933-8.203933s8.203933 3.72906 8.203933 8.203933v79.801894c0 4.474873-3.72906 8.203933-8.203933 8.203933zM655.568827 622.753095c-4.474873 0-8.203933-3.72906-8.203933-8.203933V453.453751c0-2.237436-0.745812-4.474873-2.237436-5.220685-0.745812-0.745812-2.237436-0.745812-3.72906-0.745812h-55.935907c-4.474873 0-8.203933-3.72906-8.203933-8.203933s3.72906-8.203933 8.203933-8.203933h52.952658c5.966497-1.491624 11.932993 0 16.407866 3.729061 5.220685 4.474873 8.203933 11.187181 8.203933 17.89949v161.095411c0.745812 5.220685-2.983248 8.949745-7.458121 8.949745zM856.19228 713.74217c-4.474873 0-8.203933-3.72906-8.203933-8.203933v-65.631464c0-4.474873 3.72906-8.203933 8.203933-8.203933 4.474873 0 8.203933 3.72906 8.203933 8.203933v65.631464c-0.745812 4.474873-4.474873 8.203933-8.203933 8.203933zM856.19228 595.90386c-4.474873 0-8.203933-3.72906-8.203933-8.203933V334.869629v-1.491625c0-2.237436-0.745812-3.72906-1.491624-4.474872-0.745812-1.491624-2.983248-1.491624-4.474873-1.491624h-54.444283c-4.474873 0-8.203933-3.72906-8.203933-8.203933 0-4.474873 3.72906-8.203933 8.203933-8.203933h52.952659c6.712309-0.745812 12.678806 1.491624 17.153678 5.966496 4.474873 4.474873 6.712309 10.441369 5.220684 17.153678v252.830299c0.745812 5.220685-2.983248 8.949745-6.712308 8.949745z" fill="#FFFFFF" p-id="8943"></path><path d="M592.1748 113.363438c0-2.983248-3.72906-5.966497-8.203933-6.712309l-14.916242-2.237436c-4.474873-0.745812-8.203933-4.474873-8.949745-8.949745l-2.237436-14.916242c-0.745812-4.474873-3.72906-8.203933-6.712309-8.203933s-5.966497 3.72906-6.712309 8.203933l-2.237436 14.916242c-0.745812 4.474873-4.474873 8.203933-8.949745 8.949745l-14.916242 2.237436c-4.474873 0.745812-8.203933 3.72906-8.203933 6.712309s3.72906 5.966497 8.203933 6.712309l14.916242 2.237436c4.474873 0.745812 8.203933 4.474873 8.949745 8.949745l2.237436 14.916242c0.745812 4.474873 3.72906 8.203933 6.712309 8.203933s5.966497-3.72906 6.712309-8.203933l2.237436-17.153678c0.745812-4.474873 4.474873-8.203933 8.949745-8.203933l14.916242-0.745812c4.474873-0.745812 8.203933-3.72906 8.203933-6.712309zM123.058995 479.557174c0-2.983248-3.72906-5.966497-8.203933-6.712309l-14.916242-2.237436c-4.474873-0.745812-8.203933-4.474873-8.949745-8.949745l-2.237436-14.916242c-0.745812-4.474873-3.72906-8.203933-6.712309-8.203933s-5.966497 3.72906-6.712309 8.203933l-2.237436 14.916242c-0.745812 4.474873-4.474873 8.203933-8.949745 8.949745l-14.916242 2.237436c-4.474873 0.745812-8.203933 3.72906-8.203933 6.712309s3.72906 5.966497 8.203933 6.712309l14.916242 2.237436c4.474873 0.745812 8.203933 4.474873 8.949745 8.949745l2.237436 14.916242c0.745812 4.474873 3.72906 8.203933 6.712309 8.203933s5.966497-3.72906 6.712309-8.203933l2.237436-17.153678c0.745812-4.474873 4.474873-8.203933 8.949745-8.203933l14.916242-0.745812c5.220685-0.745812 8.203933-3.72906 8.203933-6.712309zM336.361253 228.964312c0-2.983248-3.72906-5.966497-8.203933-6.712309l-14.916242-2.237436c-4.474873-0.745812-8.203933-4.474873-8.949745-8.949745l-2.237436-14.916242c-0.745812-4.474873-3.72906-8.203933-6.712309-8.203933s-5.966497 3.72906-6.712309 8.203933l-2.237436 14.916242c-0.745812 4.474873-4.474873 8.203933-8.949745 8.949745l-14.916242 2.237436c-4.474873 0.745812-8.203933 3.72906-8.203933 6.712309s3.72906 5.966497 8.203933 6.712309l14.916242 2.237436c4.474873 0.745812 8.203933 4.474873 8.949745 8.949745l2.237436 14.916242c0.745812 4.474873 3.72906 8.203933 6.712309 8.203933s5.966497-3.72906 6.712309-8.203933l2.237436-17.153678c0.745812-4.474873 4.474873-8.203933 8.949745-8.203933l14.916242-0.745812c5.220685-0.745812 8.203933-3.72906 8.203933-6.712309zM431.8252 319.953387c-17.89949 0-32.06992-14.17043-32.06992-32.06992s14.17043-32.06992 32.06992-32.06992 32.06992 14.17043 32.06992 32.06992-14.17043 32.06992-32.06992 32.06992z m0-49.223598c-9.695557 0-17.153678 7.458121-17.153678 17.153678 0 9.695557 7.458121 17.153678 17.153678 17.153678 9.695557 0 17.153678-7.458121 17.153678-17.153678 0-8.949745-7.458121-17.153678-17.153678-17.153678z" fill="#FFFFFF" p-id="8944"></path></svg>